HIERARCHY
ROOT Spine
{
    OFFSET 0.0 0.0 -0.0
    CHANNELS 6 Xposition Yposition Zposition Zrotation Xrotation Yrotation
    JOINT ShoulderCenter
    {
        OFFSET 0.0 30.426607131958008 0.0
        CHANNELS 3 Zrotation Xrotation Yrotation
        JOINT LeftShoulder
        {
            OFFSET 19.778854370117188 0.0 0.0
            CHANNELS 3 Zrotation Xrotation Yrotation
            JOINT LeftElbow
            {
                OFFSET 26.16524887084961 0.0 0.0
                CHANNELS 3 Zrotation Xrotation Yrotation
                JOINT LeftHand
                {
                    OFFSET 33.04497528076172 0.0 0.0
                    CHANNELS 3 Zrotation Xrotation Yrotation
                    End Site
                    {
                        OFFSET 13.21799087524414 0.0 0.0
                    }
                }
            }
        }
        JOINT RightShoulder
        {
            OFFSET -19.778854370117188 0.0 0.0
            CHANNELS 3 Zrotation Xrotation Yrotation
            JOINT RightElbow
            {
                OFFSET -26.16524887084961 0.0 0.0
                CHANNELS 3 Zrotation Xrotation Yrotation
                JOINT RightHand
                {
                    OFFSET -33.04497528076172 0.0 0.0
                    CHANNELS 3 Zrotation Xrotation Yrotation
                    End Site
                    {
                        OFFSET -13.21799087524414 0.0 0.0
                    }
                }
            }
        }
        End Site
        {
            OFFSET 0.0 12.170642852783203 0.0
        }
    }
    JOINT LeftHip
    {
        OFFSET 15.23478693940448 -15.23478693940448 0.0
        CHANNELS 3 Zrotation Xrotation Yrotation
        JOINT LeftKnee
        {
            OFFSET 0.0 -41.67684555053711 0.0
            CHANNELS 3 Zrotation Xrotation Yrotation
            JOINT LeftFoot
            {
                OFFSET 0.0 -47.15623092651367 0.0
                CHANNELS 3 Zrotation Xrotation Yrotation
                End Site
                {
                    OFFSET 0.0 0.0 18.86249351501465
                }
            }
        }
    }
    JOINT RightHip
    {
        OFFSET -15.23478693940448 -15.23478693940448 0.0
        CHANNELS 3 Zrotation Xrotation Yrotation
        JOINT RightKnee
        {
            OFFSET 0.0 -41.67684555053711 0.0
            CHANNELS 3 Zrotation Xrotation Yrotation
            JOINT RightFoot
            {
                OFFSET 0.0 -47.15623092651367 0.0
                CHANNELS 3 Zrotation Xrotation Yrotation
                End Site
                {
                    OFFSET 0.0 0.0 18.86249351501465
                }
            }
        }
    }
}
MOTION
Frames: 10
Frame Time: 0.03333333333333333
0.7000000476837158 9.800000190734863 34.099998474121094 -28.268515966354222 66.28667049786567 21.602912889010405 1.6873936828702227e-06 -1.0575208205420562e-06 -6.742350195101389 79.85890840312621 0.9241122493447312 -123.03510353663016 -2.819175702734878e-06 2.660252168406987e-06 47.03646444201887 -4.770832022195274e-15 2.3854160110976376e-15 -4.770832022195274e-15 -114.59265509225777 -27.73419442856477 159.2116713090541 -1.2105373313861876e-06 -3.5431417190055106e-06 -84.80142826802216 -7.553817368475852e-15 2.0966054915738252e-31 -3.1805546814635168e-15 61.90512637708792 -78.64989486082112 114.86040157057857 16.221816189132127 4.135148331458526 -6.728405943056749 -7.951386703658792e-16 6.172572088679518e-32 -8.895613874718273e-15 -15.604692106293607 -44.986575324764146 -68.3290168608339 9.946229522353697 -9.188601411083022 -17.86013818429453 8.551943452472182e-32 -1.5902773407317584e-15 6.1623246953355635e-15
0.7000000476837158 9.800000190734863 34.099998474121094 -28.686147310196436 66.12570431755933 22.090679571127502 -2.214831459950363e-06 2.3031286837824018e-06 -7.056397142088889 79.37525547038081 0.9192667024661342 -122.83174738083265 -5.460773517943384e-07 2.5539539460515352e-06 46.485361010498536 1.192708005548819e-15 -2.3854160110976376e-15 6.3611093629270335e-15 -114.46033376417807 -27.703250971919104 159.4678276724279 -1.4617751369686099e-06 -4.126961181063439e-06 -84.3876057712825 -1.5902773407317584e-15 0.0 0.0 61.490123360985294 -78.70178476857012 114.38413887351899 16.233386097417768 4.088322853445505 -6.594767086206053 0.0 0.0 -1.838758175221096e-15 -15.808902601836245 -44.802911996047506 -69.36514698759511 10.286019289307053 -8.952847713404832 -17.301082985276746 3.1805546814635164e-15 3.1805546814635164e-15 5.963540027744092e-16
0.7000000476837158 9.800000190734863 34.0 -28.46017300510072 66.04957473632017 21.548340280566354 -1.0744817469722756e-06 4.701289234741077e-06 -6.941045245695391 79.32683217768628 1.2172751825440973 -122.83663142597986 -3.228465054696522e-06 -3.5473587625259733e-07 46.72176867561471 1.1927080055488186e-15 2.385416011097637e-15 7.951386703658791e-16 -115.04230078579492 -28.190567483353938 159.03420474699948 -2.7333415866890863e-06 -8.696316891720854e-07 -84.02995464044362 -8.34895603884173e-15 -6.361109362927032e-15 -3.1805546814635164e-15 61.93376740818507 -78.37139454462397 114.81636685745954 16.25660106776411 4.131929040462873 -6.771397958160829 -7.951386703658792e-16 7.951386703658792e-16 1.7890620083232284e-15 -15.373916100284339 -45.00483513031572 -68.0258089142708 10.018880718596765 -9.181493957383815 -17.848425467355383 -3.1805546814635176e-15 -1.5902773407317588e-15 3.975693351829397e-15
0.6000000238418579 9.800000190734863 34.0 -28.237446041667113 65.8178692058328 22.036123068603047 -1.0633829189384381e-06 -1.931801396026407e-06 -7.581539009529045 79.87067353061327 1.312769500471581 -122.76260137329811 -1.5219546161556899e-06 5.181668171726593e-06 46.888762148890315 -1.5902773407317584e-15 -1.1034765745125397e-32 7.951386703658792e-16 -114.1821311726538 -28.38940218586497 159.49580307497382 -1.8055850403176902e-06 6.0505515227501504e-06 -83.69192353978318 -7.951386703658792e-15 -2.2069531490250793e-31 3.1805546814635168e-15 59.00110297292614 -78.83458624090926 111.5331229421831 16.143785312184974 4.02628162339021 -6.455100142463956 0.0 0.0 3.0563142642188476e-15 -16.01037095064372 -44.5184514804217 -69.74594012352173 10.40477104243936 -8.839485418438851 -17.237057552078515 0.0 0.0 1.987846675914698e-15
0.6000000238418579 9.899999618530273 33.89999771118164 -26.98788426039015 66.13879183141204 21.069794049368767 -1.0146663843574655e-06 -2.6686498527768755e-07 -8.114367613224498 80.28293539183237 1.9268312746616205 -122.36909012149374 1.242698302367516e-06 5.488235965926822e-06 47.550179036382794 1.5902773407317584e-15 -4.4139062980501586e-32 -3.1805546814635168e-15 -114.56727254839826 -29.079371200113837 158.2859765047149 3.116878303324885e-06 1.3836646381092753e-06 -83.23063759584186 1.987846675914698e-15 5.517382872562698e-32 3.1805546814635168e-15 58.60763716214334 -79.05853543510506 111.45797248294681 15.978252159591419 4.200181449417258 -6.707769791155003 1.1034765745125397e-32 -3.975693351829395e-16 3.180554681463516e-15 -16.19908766108861 -44.807343919690304 -67.85565624482196 9.925297230337053 -9.460166725617643 -18.715753802458874 -3.034560579909484e-32 1.5902773407317584e-15 2.1866313435061676e-15
0.5 9.899999618530273 33.89999771118164 -25.101611241888676 65.8200094315941 19.405928987894548 3.424544022037092e-08 -1.151672702370401e-06 -7.587453739816374 80.83910504375743 1.8388592488778803 -122.27180447814791 1.5340678105496158e-07 1.3854163757708382e-06 48.0563675012496 7.156248033292914e-15 -9.931289170612858e-32 -1.5902773407317584e-15 -113.85493895328258 -29.25292997349709 157.8914565910107 -1.2537730651209637e-06 6.462648262837204e-06 -82.38183223338669 -3.1805546814635168e-15 -8.827812596100317e-32 3.1805546814635168e-15 54.266681340453836 -78.78275525299414 106.71661736588062 15.705820838384613 4.217154360991631 -6.602724646371921 2.7759332577581076e-32 3.975693351829395e-16 -8.001082870556658e-15 -16.56915601712046 -44.46190270568843 -69.78295202707125 10.211634090286573 -8.750402594884635 -17.109475508142594 0.0 0.0 3.578124016646456e-15
0.4000000059604645 10.0 33.70000076293945 -22.83365565225452 65.62526452087624 17.545631466450573 1.4839083531080617e-07 -1.9010038159623966e-06 -6.421048279346776 81.70917037179935 1.3148632648276264 -121.40117022366798 -2.919718898928691e-06 -1.008742571812434e-07 48.3380132754228 -7.951386703658794e-16 -4.770832022195277e-15 -3.310429723537619e-32 -113.26929606557529 -29.09206700646324 157.25160761866675 -1.1631665513661864e-06 -6.1731708086865215e-06 -81.88904735869227 -8.94531004161614e-15 0.0 0.0 51.57915564615062 -78.5827329901751 104.45978504066815 15.480590352116577 4.505725232432211 -7.088386713239666 7.951386703658792e-16 3.9756933518293955e-16 -4.373262687012335e-15 -16.897048039375264 -44.10963420761476 -68.58303870710849 10.202132905088693 -8.948219517095255 -17.76231860093509 0.0 0.0 7.951386703658792e-15
0.30000001192092896 10.100000381469727 33.599998474121094 -19.867043982517842 65.05280453035142 15.419518286820072 -4.1208625000168965e-07 -2.136448743088077e-06 -5.943524774640233 82.14436788770936 1.2532306568260718 -121.16849192504164 -2.8789427629422344e-06 1.8314434889385662e-06 49.329593061678445 -3.975693351829396e-15 4.770832022195275e-15 1.5902773407317584e-15 -111.97772375524397 -29.12149090382121 156.58503791166515 1.7825395139902598e-06 8.709771935241668e-07 -81.39276149801354 -3.0811623476677818e-15 0.0 0.0 45.22343214586852 -78.60480635498168 98.08625504641932 15.414524776110248 4.7669419655802345 -7.292738682822677 0.0 0.0 1.4908850069360234e-15 -17.566119248152972 -43.12951907242178 -69.59235068155888 10.465101743757883 -8.863900441220697 -17.840631409968076 3.1805546814635168e-15 7.172597734331508e-32 2.5842006786891076e-15
0.20000000298023224 10.199999809265137 33.5 -16.06639881501351 64.27613502106821 12.391045437388296 -3.763108567836184e-08 -2.914238960006722e-06 -5.333430795484823 82.64099536502658 1.2191803110840904 -120.46019823731015 -3.188194015181718e-06 5.649189086483875e-07 49.904718157958 6.361109362927035e-15 -3.1805546814635176e-15 -1.5902773407317584e-15 -111.06978066725576 -29.353447509903084 155.90468319363106 -2.554093438514905e-06 1.9933232213068355e-06 -81.42503591267868 7.156248033292914e-15 0.0 0.0 37.64934834738346 -77.95492077617709 90.93719591494298 15.039616158737752 4.68198535069698 -7.041640855256794 0.0 0.0 1.789062008323228e-15 -18.282339102991184 -42.11555368730143 -69.37417306553382 10.488091889680298 -8.697237178186798 -17.718350904219566 6.361109362927035e-15 4.1932109831476505e-31 7.553817368475854e-15
0.0 10.40000057220459 33.39999771118164 -12.482485311881092 63.31977245696097 9.43677747903159 -7.555252911131957e-08 7.036258868527016e-06 -4.453499961863172 83.30184599758961 0.9433978895304783 -119.96464504032322 2.544332892924201e-07 9.611054181013976e-07 51.117041572753244 -3.1805546814635168e-15 -8.827812596100317e-32 3.1805546814635168e-15 -109.86893581675186 -29.705478912218595 155.16201250224879 -4.845504330822332e-06 1.2953499717313153e-06 -81.30374566548755 2.782985346280577e-15 -7.724336021587778e-32 -3.1805546814635168e-15 31.603382433731454 -76.8450289006381 84.72638483788265 14.566652277434695 4.879182870902747 -7.370593200117584 0.0 0.0 6.311413196029166e-15 -19.313457034877374 -41.39977912258217 -71.25172081956501 10.953390916032268 -8.172566800032445 -16.78649103923023 -3.1805546814635168e-15 -3.1805546814635168e-15 2.782985346280577e-15
